<svg width="62" height="65" fill="none" xmlns="http://www.w3.org/2000/svg"><g clip-path="url(#a)" fill="#B3D0FD"><path d="M25.015 3.307c.22-.064.43-.076.62-.05C30.204 2.03 34.87 2.207 39.01 4.904c4.082 2.659 6.715 7.553 7.374 12.445 1.368 10.164-8.008 18.469-14.226 24.63-.045.046-.094.077-.14.115-.08.16-.196.3-.334.419.317.891.678 1.766 1.1 2.61.236.473.313 1 .15 1.452-.146.533-.538.99-1.207 1.084-.916.129-1.829.27-2.743.414-.361 2.699-2.073 4.586-4.106 6.217-2.585 2.073-4.348 3.243-2.064 6.612 1.094 1.61-1.29 3.339-2.38 1.733-1.873-2.76-2.571-5.782-.162-8.392 1.847-2.001 4.573-3.134 5.55-5.669-.817.128-1.634.252-2.453.367-.071.01-.136.007-.203.007-.03.005-.056.014-.087.016-.733.06-1.582-.57-1.572-1.403.02-1.667.175-3.265.622-4.837-.03-.03-.06-.057-.088-.09-9.11-10.925-14.506-34.212 2.974-39.326Zm4.476 41.609a22.09 22.09 0 0 1-.703-1.813c-.01-.032-.012-.06-.02-.09-1.27.11-2.539.245-3.805.405a10.8 10.8 0 0 0-.46 2.276c1.663-.251 3.325-.522 4.988-.778Zm-5.42-4.458c2-.272 4.01-.453 6.021-.617 5.333-5.27 11.886-11.033 13.317-18.956.84-4.654-1.473-9.422-4.73-12.485-3.528-3.317-8.511-3.359-12.79-2.062a1.47 1.47 0 0 1-.521.058c-14.49 4.873-8.83 24.638-1.298 34.062Z"/><path d="M29.694 7.452c1.905-.345 2.139 2.792.251 3.133-5.674 1.028-8.636 6.191-7.918 11.988.249 2.014-2.742 2.245-2.99.24-.945-7.624 3.424-14.051 10.657-15.361Z"/></g><defs><clipPath  ><path fill="#fff" transform="scale(-1 1) rotate(4.579 -33.145 -714.286)" d="M0 0h57.138v59.872H0z"/></clipPath></defs></svg>